<?xml version="1.0" encoding="UTF-8" standalone="no"?>
<!-- Created with Inkscape (http://www.inkscape.org/) -->

<svg
   xmlns:dc="http://purl.org/dc/elements/1.1/"
   xmlns:cc="http://creativecommons.org/ns#"
   xmlns:rdf="http://www.w3.org/1999/02/22-rdf-syntax-ns#"
   xmlns:svg="http://www.w3.org/2000/svg"
   xmlns="http://www.w3.org/2000/svg"
   xmlns:sodipodi="http://sodipodi.sourceforge.net/DTD/sodipodi-0.dtd"
   xmlns:inkscape="http://www.inkscape.org/namespaces/inkscape"
   width="100%"
   height="auto"
   viewBox="0 0 144.49777 144.49777"
   version="1.1"
   id="svg8"
   inkscape:version="0.92.2 (5c3e80d, 2017-08-06)"
   sodipodi:docname="ico.svg">
  <defs
     id="defs2" />
  <sodipodi:namedview
     id="base"
     pagecolor="#ffffff"
     bordercolor="#666666"
     borderopacity="1.0"
     inkscape:pageopacity="0.0"
     inkscape:pageshadow="2"
     inkscape:zoom="0.35"
     inkscape:cx="-724.07618"
     inkscape:cy="-221.21908"
     inkscape:document-units="mm"
     inkscape:current-layer="layer1"
     showgrid="false"
     inkscape:window-width="2498"
     inkscape:window-height="1057"
     inkscape:window-x="54"
     inkscape:window-y="-8"
     inkscape:window-maximized="1" />
  <metadata
     id="metadata5">
    <rdf:RDF>
      <cc:Work
         rdf:about="">
        <dc:format>image/svg+xml</dc:format>
        <dc:type
           rdf:resource="http://purl.org/dc/dcmitype/StillImage" />
        <dc:title></dc:title>
      </cc:Work>
    </rdf:RDF>
  </metadata>
  <g
     inkscape:label="Layer 1"
     inkscape:groupmode="layer"
     id="layer1"
     transform="translate(-156.04873,54.19532)">
    <g
       id="g45"
       transform="translate(35.529762,-226.78571)">
      <path
         style="fill:#fefefe;stroke-width:0.28222221"
         d="m 120.51897,244.83928 v -72.24889 h 72.24888 72.24889 v 72.24889 72.24888 h -72.24889 -72.24888 z"
         id="path69"
         inkscape:connector-curvature="0" />
      <path
         style="fill:#ebf2fc;stroke-width:0.28222221"
         d="m 168.86186,285.40872 c -0.14764,-0.19403 -3.09854,-8.73478 -6.55755,-18.97945 -15.55542,-46.07098 -16.06156,-47.46559 -18.49634,-50.96422 -1.43182,-2.05744 -3.08305,-3.26142 -4.83282,-3.52382 -0.78458,-0.11765 -1.35935,-0.3809 -1.5307,-0.70106 -0.43276,-0.80864 -0.34644,-4.93641 0.11118,-5.3162 0.27677,-0.2297 3.64084,-0.29917 11.92389,-0.24622 l 11.53834,0.0737 0.0815,2.63898 c 0.0857,2.77318 -0.12709,3.4288 -1.11272,3.4288 -0.29631,0 -0.60488,0.17236 -0.68572,0.38302 -0.1359,0.35416 16.12595,51.42422 16.52602,51.89968 0.21596,0.25667 9.43365,-25.63594 10.35874,-29.09785 1.55918,-5.83481 2.00023,-13.63202 0.96014,-16.97384 -1.04732,-3.36505 -2.81724,-5.0388 -6.17019,-5.83491 -2.83482,-0.67309 -2.731,-0.55971 -2.82592,-3.08593 -0.046,-1.22494 -0.0119,-2.51334 0.0759,-2.86311 l 0.15962,-0.63595 h 11.81776 c 10.5159,0 11.83663,0.0492 11.98906,0.44641 0.0942,0.24553 0.17131,1.49998 0.17131,2.78767 0,2.54913 -0.16155,2.86348 -1.55222,3.02039 -0.66451,0.075 -0.82757,0.21697 -0.75788,0.65997 0.0488,0.31045 3.50166,11.04195 7.67295,23.84778 4.17129,12.80583 7.92275,24.35527 8.33658,25.66541 0.53894,1.70622 0.82078,2.25992 0.99337,1.95153 0.13252,-0.23681 2.45982,-6.57925 5.17177,-14.09431 2.71195,-7.51506 5.45368,-15.06074 6.09273,-16.76819 3.7142,-9.92374 4.75069,-16.52326 3.00287,-19.11981 -0.83074,-1.23414 -1.68242,-1.59289 -4.61048,-1.94205 -4.20603,-0.50156 -3.77927,-0.10466 -3.6867,-3.42875 l 0.0803,-2.88494 h 14.67556 14.67555 v 2.79146 c 0,3.09296 0.1269,2.88302 -2.24983,3.72211 -2.53327,0.89436 -5.37806,4.12189 -7.81081,8.86169 -0.67553,1.31618 -6.82294,16.36568 -13.6609,33.44333 l -12.43266,31.05029 -2.90725,0.0808 c -1.59898,0.0444 -3.05508,-0.0419 -3.23576,-0.19189 -0.18068,-0.14996 -3.81838,-10.88004 -8.08376,-23.84464 -4.26539,-12.9646 -7.83904,-23.48275 -7.94145,-23.37367 -0.43501,0.46336 -5.534,12.87474 -11.38621,27.715 -3.45844,8.77006 -6.63307,16.80281 -7.05473,17.85056 l -0.76666,1.905 h -2.89876 c -1.9877,0 -2.98314,-0.11088 -3.16721,-0.35278 z"
         id="path67"
         inkscape:connector-curvature="0" />
      <path
         style="fill:#d9e6fb;stroke-width:0.28222221"
         d="m 169.10416,285.38994 c -0.1696,-0.20436 -4.11237,-11.60261 -8.76171,-25.32944 -4.64934,-13.72684 -9.4241,-27.81539 -10.61058,-31.30789 -3.34929,-9.8589 -6.05278,-14.901 -8.73715,-16.29508 -0.47372,-0.24602 -1.43281,-0.5935 -2.13131,-0.77218 l -1.27,-0.32487 -0.0825,-2.51732 c -0.0696,-2.12384 -0.006,-2.57324 0.40672,-2.87505 0.37466,-0.27395 2.97146,-0.35682 11.08917,-0.35387 5.82997,0.002 10.8857,0.0804 11.23495,0.17403 0.60123,0.16112 0.635,0.3108 0.635,2.81458 v 2.64441 l -1.00861,0.42142 c -0.85445,0.35701 -0.97927,0.51935 -0.81668,1.06212 0.59386,1.98254 16.61575,51.7427 16.69173,51.84051 0.0502,0.0647 0.16802,0.0409 0.26175,-0.0528 0.19606,-0.19607 8.50971,-23.48166 9.59548,-26.87588 1.91602,-5.98964 2.87576,-14.3108 2.10338,-18.23673 -0.60088,-3.05422 -2.21891,-5.54888 -4.29548,-6.62272 -0.45814,-0.23691 -1.74641,-0.65496 -2.86283,-0.929 l -2.02986,-0.49825 -0.0825,-2.51504 c -0.0696,-2.12167 -0.006,-2.57098 0.40672,-2.87276 0.70882,-0.5183 22.06719,-0.5183 22.77601,0 0.4129,0.30193 0.47635,0.75164 0.40672,2.8829 l -0.0825,2.52516 -1.05834,0.24959 c -0.65465,0.15439 -1.05833,0.41475 -1.05833,0.68259 0,0.23816 3.42022,10.92529 7.6005,23.74919 4.18027,12.8239 8.00378,24.578 8.49669,26.12022 0.59803,1.87113 0.97111,2.66924 1.12135,2.39889 0.12383,-0.22284 2.45001,-6.56465 5.16929,-14.09293 2.71927,-7.52828 5.64239,-15.59278 6.49581,-17.92111 0.85342,-2.32833 1.97037,-5.75733 2.48209,-7.62 0.81136,-2.95328 0.93159,-3.82637 0.93957,-6.82267 0.008,-3.03477 -0.0589,-3.5291 -0.57351,-4.23333 -0.88092,-1.20548 -2.24251,-1.73575 -5.34534,-2.08174 -1.54887,-0.17271 -2.91052,-0.46237 -3.02586,-0.64369 -0.11535,-0.18133 -0.21167,-1.37296 -0.21405,-2.64809 -0.004,-2.00586 0.0693,-2.35778 0.54157,-2.61055 0.59132,-0.31647 27.02454,-0.42125 28.18001,-0.11171 0.62239,0.16673 0.642,0.26709 0.56445,2.88892 l -0.0803,2.71619 -1.63076,0.51618 c -2.87549,0.91015 -5.9143,4.33603 -8.67941,9.78493 -0.51201,1.00895 -6.49518,15.73176 -13.29595,32.71736 -6.80077,16.98561 -12.52653,30.98541 -12.7239,31.11068 -0.19738,0.12527 -1.46719,0.22971 -2.82181,0.23208 -2.25019,0.004 -2.49741,-0.0505 -2.86199,-0.63067 -0.32703,-0.52038 -6.82781,-20.04509 -14.28472,-42.90332 -0.79853,-2.4478 -1.5596,-4.38396 -1.69127,-4.30259 -0.44147,0.27285 -5.51079,12.56157 -12.28425,29.77868 -3.69453,9.39095 -6.9082,17.2967 -7.14148,17.56834 -0.3437,0.4002 -0.89112,0.49389 -2.88586,0.49389 -1.69142,0 -2.55819,-0.11627 -2.77007,-0.37156 z"
         id="path65"
         inkscape:connector-curvature="0" />
      <path
         style="fill:#c7daf9;stroke-width:0.28222221"
         d="m 169.13593,285.1362 c -0.16099,-0.19936 -4.83087,-13.76098 -10.37751,-30.13693 -5.54663,-16.37594 -10.52937,-30.91744 -11.07273,-32.31444 -1.37225,-3.52807 -3.27856,-7.16525 -4.50858,-8.60226 -1.03369,-1.20763 -3.37099,-2.53753 -4.46892,-2.54276 -0.3182,-0.002 -0.73095,-0.15516 -0.91722,-0.34142 -0.38217,-0.38217 -0.46619,-4.38572 -0.10402,-4.95625 0.1771,-0.27897 2.69561,-0.34005 11.63735,-0.28222 l 11.41133,0.0738 0.081,2.59978 0.081,2.59978 -0.92724,0.24027 c -0.50998,0.13215 -0.96671,0.44523 -1.01495,0.69573 -0.12264,0.63683 16.67973,52.72718 16.97594,52.62844 0.30182,-0.1006 8.66393,-23.45836 9.97416,-27.86067 0.53127,-1.78505 1.21522,-4.69913 1.51988,-6.47573 0.61987,-3.61475 0.75691,-9.52111 0.27119,-11.68851 -0.88751,-3.96025 -3.5794,-6.54095 -7.408,-7.102 -0.73231,-0.10731 -1.46789,-0.3595 -1.63464,-0.56042 -0.17877,-0.21541 -0.26935,-1.33187 -0.22076,-2.72098 l 0.0824,-2.35569 11.55247,-0.0738 c 9.05466,-0.0578 11.60134,0.003 11.77846,0.28222 0.36216,0.5705 0.27812,4.57405 -0.10404,4.95621 -0.18627,0.18626 -0.61522,0.33866 -0.95322,0.33866 -1.47052,0 -1.45299,0.0718 4.41695,18.08226 3.10767,9.53515 6.9922,21.45447 8.63228,26.48737 2.04505,6.27564 3.05727,9.01618 3.22165,8.72244 0.21819,-0.38989 8.77671,-23.89258 12.16095,-33.3954 3.4258,-9.61949 4.11278,-15.25054 2.18999,-17.95085 -0.69202,-0.97186 -2.48071,-1.55177 -5.76438,-1.86889 l -2.25778,-0.21804 v -2.68111 -2.68111 h 14.39334 14.39333 v 2.65785 2.65785 l -1.43804,0.40005 c -2.83103,0.78756 -5.71083,3.76749 -8.30719,8.59603 -0.69184,1.28663 -6.91019,16.43633 -13.81855,33.666 l -12.56066,31.32666 -2.86578,0.0801 -2.86578,0.0801 -0.44578,-1.20902 c -0.24517,-0.66496 -2.74181,-8.19402 -5.54808,-16.73124 -9.02484,-27.45536 -9.90878,-30.06266 -10.14295,-29.91794 -0.42693,0.26386 -5.30396,12.04136 -11.57086,27.94239 -3.42586,8.69244 -6.58265,16.69344 -7.01508,17.78 l -0.78624,1.97555 -2.69101,0.0803 c -1.93267,0.0576 -2.77348,-0.0219 -2.9837,-0.28222 z"
         id="path63"
         inkscape:connector-curvature="0" />
      <path
         style="fill:#adcaf7;stroke-width:0.28222221"
         d="m 168.94305,284.56205 c -0.20436,-0.50447 -4.97552,-14.50622 -10.60259,-31.115 -5.62707,-16.60877 -10.81332,-31.52766 -11.52501,-33.15309 -2.50172,-5.71364 -4.4861,-7.96016 -7.75048,-8.77435 l -1.35067,-0.33688 0.0807,-2.5745 0.0807,-2.57451 11.11487,-0.0739 c 7.96992,-0.053 11.224,0.0167 11.50055,0.24622 0.2617,0.21719 0.38569,0.98295 0.38569,2.38204 0,2.1771 -0.36671,2.94893 -1.40108,2.94893 -0.28275,0 -0.58341,0.18066 -0.66814,0.40145 -0.20171,0.52565 16.77474,53.25782 17.10973,53.14616 0.38889,-0.12963 9.7068,-26.4193 10.65414,-30.05972 2.6998,-10.37481 2.02828,-18.55491 -1.77017,-21.56334 -1.23149,-0.97536 -3.52253,-1.92248 -4.66585,-1.92887 -1.33932,-0.007 -1.59069,-0.37236 -1.70989,-2.48206 -0.19532,-3.4565 -1.27313,-3.1762 11.88456,-3.0907 l 11.3478,0.0737 0.081,2.60255 0.081,2.60255 -0.78659,0.17269 c -1.36192,0.299 -1.49246,0.37778 -1.4794,0.8928 0.0221,0.87297 17.04802,52.66274 17.34391,52.75716 0.27128,0.0866 8.90548,-23.41203 12.85647,-34.98983 3.28262,-9.61922 3.70019,-14.77457 1.37699,-17.00034 -0.88121,-0.84425 -3.2911,-1.52289 -5.43257,-1.52984 -2.27431,-0.007 -2.45089,-0.21973 -2.45089,-2.94747 0,-1.89054 0.0886,-2.39277 0.44642,-2.53007 0.24553,-0.0942 6.63363,-0.17131 14.19578,-0.17131 10.31765,0 13.83389,0.0845 14.08802,0.33867 0.20094,0.20094 0.33867,1.16831 0.33867,2.37873 0,2.09028 -0.37151,2.92704 -1.29954,2.92704 -0.87861,0 -3.14018,1.43289 -4.52965,2.86992 -1.56384,1.61734 -3.45605,4.42033 -4.83235,7.15831 -0.47074,0.93647 -6.33901,15.41446 -13.04061,32.17333 -6.7016,16.75887 -12.37117,30.7611 -12.59906,31.11608 -0.38941,0.60658 -0.5706,0.64054 -3.01156,0.56444 l -2.59723,-0.081 -7.99721,-24.09145 c -4.85561,-14.62743 -8.09899,-23.98967 -8.25631,-23.83236 -0.65843,0.65843 -5.53938,12.55725 -14.50686,35.36492 -2.59377,6.59695 -4.84558,12.1532 -5.00401,12.34723 -0.19137,0.23437 -1.1338,0.35277 -2.8079,0.35277 h -2.51984 z"
         id="path61"
         inkscape:connector-curvature="0" />
      <path
         style="fill:#8db5f5;stroke-width:0.28222221"
         d="m 169.05962,284.56205 c -0.14943,-0.34925 -4.83032,-14.097 -10.40196,-30.55055 -10.58609,-31.26163 -11.23032,-33.06594 -13.07109,-36.60854 -1.91751,-3.69027 -3.62149,-5.27774 -6.44093,-6.00054 l -1.27,-0.32558 v -2.38045 -2.38045 h 11.28888 11.28889 l 0.0818,2.31984 0.0818,2.31983 -0.99906,0.41743 c -0.55056,0.23005 -0.99905,0.61907 -0.99905,0.86659 0,0.49353 16.84655,52.92694 17.08018,53.16057 0.0796,0.0796 0.25685,0.0263 0.39382,-0.11863 0.33478,-0.35409 9.7627,-26.98223 10.46479,-29.55666 1.06471,-3.9041 1.46226,-6.58011 1.61647,-10.88091 0.22071,-6.15516 -0.51085,-8.88408 -2.97948,-11.11434 -1.47092,-1.32889 -1.93229,-1.55909 -4.3608,-2.17582 l -2.03609,-0.51707 v -2.36041 -2.36042 h 11.43 11.42999 v 2.38732 2.38732 l -0.9537,0.19505 c -1.25623,0.25693 -1.46361,0.66745 -1.04028,2.05928 2.4333,8.00019 17.02196,52.09659 17.23541,52.09659 0.26021,0 9.30006,-24.51821 13.0069,-35.27778 3.1273,-9.07739 3.63661,-14.23531 1.66137,-16.82498 -0.8502,-1.11468 -2.51594,-1.68891 -5.72583,-1.97386 -1.19379,-0.10598 -2.26384,-0.33284 -2.37788,-0.50414 -0.27951,-0.41987 -0.26486,-3.88975 0.0183,-4.33579 0.17752,-0.27964 3.23129,-0.33983 14.31846,-0.28223 l 14.09282,0.0732 v 2.37537 2.37537 l -1.27,0.41815 c -3.51661,1.15786 -6.60032,4.74941 -9.5785,11.15592 -0.73285,1.57647 -6.70084,16.29655 -13.26219,32.7113 l -11.92975,29.845 h -2.64263 c -2.23106,0 -2.68252,-0.0769 -2.89876,-0.49389 -0.14087,-0.27164 -3.71706,-11.03489 -7.94709,-23.91833 -4.23003,-12.88344 -7.79195,-23.5348 -7.91538,-23.66969 -0.12343,-0.13488 -0.4821,0.25987 -0.79706,0.87723 -1.23572,2.42222 -6.1761,14.51141 -12.31305,30.13024 -3.53742,9.00289 -6.5561,16.52764 -6.70819,16.72166 -0.18426,0.23508 -1.11444,0.35278 -2.788,0.35278 -2.33587,0 -2.5305,-0.0444 -2.78319,-0.635 z"
         id="path59"
         inkscape:connector-curvature="0" />
      <path
         style="fill:#74a5f3;stroke-width:0.28222221"
         d="m 169.42646,284.85463 c -0.15702,-0.19972 -4.88744,-13.95213 -10.51206,-30.56091 -5.62461,-16.60878 -10.66396,-31.25888 -11.19857,-32.55577 -2.88169,-6.99065 -4.88599,-9.50043 -8.27402,-10.36068 l -1.28395,-0.32601 v -2.36766 -2.36766 h 11.14778 11.14777 l 0.0834,2.07222 c 0.0878,2.17948 -0.17395,2.86667 -1.09176,2.86667 -0.74892,0 -1.08194,0.77756 -0.78837,1.84078 0.62647,2.26889 16.8481,52.3925 17.00751,52.5519 0.0988,0.0988 0.29524,0.0612 0.43647,-0.0837 0.14123,-0.14487 2.47583,-6.49395 5.18799,-14.10907 6.33431,-17.78521 7.05472,-20.62358 7.08715,-27.92322 0.0133,-2.99891 -0.10087,-4.33363 -0.47387,-5.53831 -1.06556,-3.44151 -3.52349,-5.83406 -6.63707,-6.46054 -2.39475,-0.48184 -2.45553,-0.53926 -2.55345,-2.41194 -0.0475,-0.90879 -0.013,-1.94485 0.0768,-2.30235 l 0.16313,-0.64999 11.21215,0.0738 11.21214,0.0738 v 2.39612 2.39612 l -0.81648,0.14388 c -0.44907,0.0791 -0.94689,0.35103 -1.10627,0.6042 -0.22122,0.35141 1.76994,6.77849 8.41559,27.16389 4.95658,15.20421 8.84732,26.70357 9.03499,26.70357 0.27254,0 6.2325,-16.07624 12.60774,-34.00778 3.67572,-10.33864 4.27931,-16.36614 1.87925,-18.7662 -0.95884,-0.95884 -2.1864,-1.36644 -4.75593,-1.57914 -3.35814,-0.27799 -3.13877,-0.081 -3.04517,-2.73453 l 0.0818,-2.32013 h 14.11111 14.11111 l 0.0834,2.07222 c 0.0939,2.33093 -0.10117,2.72776 -1.46655,2.98391 -2.33398,0.43786 -5.34769,3.50951 -8.02207,8.17629 -1.67256,2.91862 -1.07925,1.48339 -15.53003,37.56758 l -11.18924,27.94 -2.59725,0.081 -2.59726,0.081 -7.97766,-24.14914 c -5.73824,-17.37018 -8.08583,-24.12688 -8.36299,-24.06986 -0.65921,0.13564 -3.68099,7.45627 -17.27391,41.84817 l -2.45397,6.20889 -2.39699,0.0809 c -1.69963,0.0574 -2.48005,-0.0247 -2.68247,-0.28222 z"
         id="path57"
         inkscape:connector-curvature="0" />
      <path
         style="fill:#659bf2;stroke-width:0.28222221"
         d="m 169.69972,284.96659 c -0.19209,-0.12201 -4.8013,-13.35981 -10.24268,-29.41735 -11.64119,-34.3532 -11.20669,-33.12441 -13.13399,-37.14312 -1.99969,-4.16965 -3.7388,-6.08458 -6.33075,-6.97077 l -1.83444,-0.6272 -0.0824,-2.17555 -0.0824,-2.17555 h 11.15965 11.15965 v 2.19591 c 0,2.18035 -0.006,2.19816 -0.84602,2.51524 -0.46532,0.17564 -0.92233,0.51819 -1.0156,0.76123 -0.0933,0.24304 2.96756,10.19193 6.80183,22.10865 10.3508,32.16978 10.29906,32.01514 10.6709,31.89121 0.37558,-0.12518 0.26966,0.15665 6.12316,-16.29224 5.72651,-16.09204 6.69957,-20.24893 6.42355,-27.44122 -0.16155,-4.2099 -0.79839,-6.14565 -2.68559,-8.16321 -1.44548,-1.54534 -2.95491,-2.35658 -5.23783,-2.81506 l -1.60773,-0.32287 v -2.21882 -2.21882 h 11.28889 11.28888 v 2.20801 2.208 l -1.05833,0.26144 c -0.90479,0.22351 -1.0681,0.38428 -1.12561,1.10811 -0.0692,0.8714 16.81828,52.98833 17.33843,53.50849 0.18354,0.18354 0.3747,0.15417 0.55958,-0.086 0.15445,-0.2006 2.28839,-5.95273 4.74209,-12.78251 2.4537,-6.82978 5.38719,-14.92014 6.51887,-17.97858 3.28229,-8.8706 4.41361,-13.26739 4.41486,-17.15809 8.5e-4,-2.4766 -0.58763,-4.19422 -1.78086,-5.19825 -0.90099,-0.75814 -1.56029,-0.94094 -5.04821,-1.39969 l -2.40637,-0.3165 v -2.11667 -2.11666 l 14.04055,-0.0732 14.04056,-0.0732 v 2.25503 c 0,2.22667 -0.01,2.25738 -0.77611,2.44157 -3.41847,0.82162 -6.9044,4.61761 -9.80539,10.67751 -0.672,1.40374 -6.5768,15.95076 -13.12177,32.32671 -6.54498,16.37594 -12.08367,30.06019 -12.30819,30.40944 -0.36687,0.57068 -0.63456,0.635 -2.64284,0.635 -1.45017,0 -2.30908,-0.12049 -2.44675,-0.34325 -0.11668,-0.18878 -3.72984,-10.99535 -8.02926,-24.01459 -4.29941,-13.01925 -7.96323,-23.81747 -8.14182,-23.99606 -0.43896,-0.43896 -0.4645,-0.3916 -3.09401,5.73835 -2.46933,5.75652 -4.95714,11.94721 -12.02197,29.91555 -2.5938,6.59695 -4.84563,12.1532 -5.00406,12.34722 -0.32146,0.39369 -4.07792,0.49228 -4.66041,0.12232 z"
         id="path55"
         inkscape:connector-curvature="0" />
      <path
         style="fill:#5893f1;stroke-width:0.28222221"
         d="m 169.22393,283.99761 c -0.20509,-0.50448 -4.90103,-14.28629 -10.43541,-30.62626 -5.53438,-16.33998 -10.62171,-31.01827 -11.30519,-32.61843 -2.6,-6.08721 -4.54844,-8.52967 -7.5361,-9.44683 l -1.78937,-0.54931 v -2.07931 -2.0793 l 11.07722,-0.0738 11.07722,-0.0738 v 2.2027 2.20269 l -0.91722,0.27002 c -0.6803,0.20028 -0.93709,0.45228 -0.99412,0.97559 -0.12457,1.14301 16.93021,53.74019 17.45839,53.84191 0.3454,0.0665 1.35931,-2.49415 4.63624,-11.70895 5.95784,-16.75361 6.25029,-17.6378 7.03011,-21.25532 0.38561,-1.78881 0.82786,-4.83681 0.98278,-6.77334 0.72075,-9.00929 -1.5355,-13.46156 -7.59396,-14.98524 l -1.83444,-0.46136 -0.0824,-2.15107 -0.0824,-2.15108 h 11.31264 11.31263 l -0.0824,2.15106 -0.0824,2.15105 -0.96071,0.31839 c -0.52839,0.17512 -1.07751,0.50889 -1.22025,0.74173 -0.1818,0.29652 1.14763,4.73469 4.43825,14.81666 12.90293,39.53262 12.86072,39.40789 13.30434,39.31688 0.28833,-0.0591 2.32412,-5.31463 6.21085,-16.03355 9.23773,-25.47606 9.76704,-27.19657 9.81119,-31.8911 0.0422,-4.48171 -1.21043,-6.10705 -5.20604,-6.75531 -1.00336,-0.16279 -2.30055,-0.29695 -2.88263,-0.29812 l -1.05833,-0.002 v -2.25778 -2.25778 h 13.97 13.97 v 2.22637 2.22637 l -0.96969,0.18192 c -2.84524,0.53377 -6.35271,4.26551 -9.18725,9.77468 -0.83404,1.62103 -7.00552,16.66333 -13.71439,33.42733 l -12.19796,30.48 -2.50764,0.0803 -2.50765,0.0804 -7.98008,-24.15703 c -6.51805,-19.73121 -8.06452,-24.14078 -8.44095,-24.06829 -0.74735,0.14393 -4.30818,8.70246 -16.56304,39.80962 l -3.3077,8.39611 h -2.38956 -2.38956 z"
         id="path53"
         inkscape:connector-curvature="0" />
      <path
         style="fill:#4888f0;stroke-width:0.28222221"
         d="m 169.47697,284.56205 c -0.072,-0.19403 -4.56251,-13.43378 -9.97885,-29.42166 -11.18472,-33.01485 -11.42524,-33.68905 -13.39062,-37.5353 -2.14977,-4.2071 -3.85825,-5.76436 -7.45575,-6.79584 -0.24211,-0.0694 -0.35278,-0.76901 -0.35278,-2.22999 v -2.12883 l 10.93611,0.0739 10.93611,0.0739 v 2.09872 2.09873 l -0.89929,0.23303 c -0.49461,0.12816 -0.97081,0.45836 -1.05822,0.73376 -0.16128,0.50817 16.88048,53.87611 17.36256,54.37255 0.16609,0.17103 0.40139,0.11927 0.64145,-0.14112 0.34697,-0.37634 6.31624,-16.9128 9.521,-26.37568 2.67877,-7.90975 3.6917,-15.68524 2.67082,-20.50174 -0.96544,-4.55493 -3.41709,-7.12841 -7.6047,-7.9826 l -1.72473,-0.35182 v -2.09192 -2.09191 h 11.14778 11.14777 l 0.0872,1.53713 c 0.11757,2.07187 -0.10276,2.83731 -0.81671,2.83731 -0.89593,0 -1.66941,0.5276 -1.66941,1.13872 0,0.42762 16.51721,51.48281 17.36733,53.68294 0.37014,0.95792 0.93564,0.473 1.6456,-1.41111 1.26657,-3.36123 10.90412,-30.00112 12.18422,-33.67931 2.6863,-7.71872 3.48745,-12.664 2.56544,-15.83562 -0.76007,-2.61453 -2.27778,-3.49292 -6.66925,-3.85987 l -2.11667,-0.17686 v -2.11667 -2.11666 h 13.82889 13.82889 v 2.06559 2.06559 l -1.48722,0.50347 c -2.9911,1.01259 -5.98323,4.39128 -8.76714,9.89979 -0.90214,1.78506 -7.08763,16.87085 -13.74553,33.52398 l -12.10528,30.27844 -2.39482,-0.0807 -2.39483,-0.0806 -8.00225,-24.21821 c -6.53603,-19.7808 -8.08669,-24.20195 -8.46311,-24.12946 -0.64956,0.12509 -4.44757,9.10725 -12.65818,29.93614 -3.77908,9.58688 -7.00616,17.68313 -7.17128,17.99167 -0.26118,0.48801 -0.59372,0.56097 -2.55693,0.56097 -1.54737,0 -2.29786,-0.11089 -2.38765,-0.35278 z"
         id="path51"
         inkscape:connector-curvature="0" />
      <path
         style="fill:#3c81ef;stroke-width:0.28222221"
         d="m 169.49035,284.13872 c -0.10762,-0.27164 -4.048,-11.86039 -8.75639,-25.75278 -4.7084,-13.89239 -9.40736,-27.73539 -10.44215,-30.76222 -2.144,-6.2714 -4.58521,-11.59546 -6.30744,-13.75595 -1.19155,-1.49477 -2.99992,-2.64161 -4.76818,-3.02392 l -0.91722,-0.19831 v -1.95313 -1.95313 h 10.86555 10.86556 v 1.92462 c 0,1.90041 -0.0115,1.9297 -0.91722,2.32833 -0.55307,0.24343 -0.95131,0.64271 -1.00308,1.00568 -0.0657,0.46042 9.56427,30.88256 16.49793,52.11893 0.616,1.88671 0.80321,2.1907 1.30348,2.11666 0.49708,-0.0736 1.14524,-1.6642 4.34777,-10.66978 6.11917,-17.20724 6.79566,-19.25023 7.5841,-22.90357 0.91169,-4.22448 1.25073,-10.77184 0.70252,-13.56653 -0.88651,-4.51923 -3.40415,-7.17773 -7.70161,-8.13251 l -1.62278,-0.36054 v -1.93065 -1.93064 h 11.00667 11.00666 v 1.94752 1.94752 l -1.02719,0.24292 c -0.64076,0.15154 -1.10885,0.46364 -1.24423,0.8296 -0.15247,0.41218 0.63965,3.22322 2.66328,9.45122 11.81815,36.37214 14.72266,45.12986 15.00305,45.23745 0.17578,0.0675 0.44691,0.0392 0.6025,-0.0629 0.26197,-0.17184 9.48634,-25.34405 12.94384,-35.32222 2.64078,-7.62116 3.52599,-12.11152 2.9751,-15.09155 -0.6293,-3.40424 -2.06026,-4.47991 -6.67853,-5.02034 l -2.66004,-0.31128 v -1.92397 -1.92397 h 13.82889 13.82888 v 1.95287 1.95288 l -1.34055,0.44708 c -3.0875,1.02971 -5.99989,4.26845 -8.77498,9.75828 -0.90234,1.78505 -7.08684,16.87085 -13.74334,33.524 l -12.10273,30.27845 -2.38972,-0.0807 -2.38972,-0.0807 -7.89106,-23.98889 c -4.34009,-13.19389 -8.02058,-24.07239 -8.17888,-24.17445 -0.15831,-0.10205 -0.44212,-0.12634 -0.63071,-0.054 -0.52753,0.20244 -5.57553,12.31594 -13.00541,31.20858 l -6.74067,17.14015 -2.29814,0.005 c -1.92881,0.004 -2.32958,-0.0745 -2.49381,-0.48905 z"
         id="path49"
         inkscape:connector-curvature="0" />
      <path
         style="fill:#367def;stroke-width:0.28222221"
         d="m 160.19812,256.33857 c -10.68221,-31.58402 -11.83063,-34.82408 -13.62896,-38.45152 -2.24346,-4.52532 -3.85289,-6.20777 -6.6554,-6.95732 l -1.33257,-0.35641 v -1.91702 -1.91702 h 10.72445 10.72444 v 1.94027 c 0,1.92213 -0.008,1.94184 -0.83132,2.10655 -1.39421,0.27884 -1.52622,0.96666 -0.69605,3.62666 1.23358,3.95256 13.88316,43.27407 15.39947,47.8696 2.08181,6.30939 1.73445,6.68181 6.66133,-7.14197 7.09845,-19.91676 7.54786,-21.45004 8.27217,-28.22223 0.83761,-7.8315 -0.84575,-12.8417 -5.045,-15.01551 -0.9697,-0.50198 -2.39453,-0.99646 -3.16629,-1.09884 l -1.4032,-0.18614 v -1.9392 -1.93919 h 11.00667 11.00666 v 1.92135 1.92135 l -1.19944,0.26587 c -0.99183,0.21985 -1.21401,0.3909 -1.28356,0.98816 -0.0462,0.39726 3.859,12.81294 8.67834,27.59042 4.81934,14.77747 8.76244,26.93019 8.76244,27.00604 0,0.0759 0.29527,0.13791 0.65616,0.13791 0.6109,0 1.06019,-1.11463 6.51272,-16.15722 9.50729,-26.22895 9.86783,-27.40936 9.89148,-32.38499 0.0228,-4.80167 -1.0467,-6.28868 -5.05615,-7.02987 -0.91611,-0.16935 -2.21383,-0.30791 -2.88382,-0.30791 h -1.21817 v -1.97556 -1.97555 h 13.68778 13.68777 v 1.94414 1.94415 l -0.96968,0.18192 c -2.84524,0.53377 -6.35272,4.2655 -9.18725,9.77468 -0.83404,1.62103 -7.00547,16.66333 -13.71428,33.42733 l -12.19783,30.48 -2.22421,0.081 -2.22421,0.081 -8.01967,-24.28153 c -7.41432,-22.44869 -8.06678,-24.28153 -8.64373,-24.28153 -0.54707,0 -0.99069,0.86171 -3.5959,6.985 -1.63452,3.84175 -5.97678,14.605 -9.64948,23.91833 -3.6727,9.31333 -6.74185,17.09208 -6.82033,17.28611 -0.0967,0.23917 -0.83735,0.35237 -2.29973,0.35151 l -2.15702,-0.001 z"
         id="path47"
         inkscape:connector-curvature="0" />
    </g>
  </g>
</svg>
